<?xml version="1.0" encoding="UTF-8"?>
<svg id="Layer_1" xmlns="http://www.w3.org/2000/svg" viewBox="0 0 437.62 558.16">
  <defs>
    <style>
      .cls-1 {
        fill: #ebbfc4;
      }
    </style>
  </defs>
  <path class="cls-1" d="M.45,239.17c-1.66-27.75,1.34-55.08,7.39-82.2,2.6-11.66,2.99-23.8,5.24-35.56,3-15.68,6.29-31.34,10.56-46.71,1.82-6.54,6.11-12.51,9.85-18.38,9.46-14.85,19.13-29.58,28.97-44.18,2.19-3.25,5.2-6.1,8.29-8.55,6.47-5.15,11.29-4.97,16.19,1.81,7.97,11.05,15.93,22.26,22.29,34.26,6.37,12.01,15.29,18.81,28.53,20.59,20.46,2.76,40.93,5.45,61.34,8.55,24.33,3.69,48.59,7.86,72.9,11.68,10.53,1.66,21.07,3.51,31.67,4.19,4.26.28,9.32-1.4,12.97-3.79,13.37-8.74,26.25-18.22,39.41-27.29,7.11-4.91,14.3-9.73,21.65-14.27,5.87-3.63,14.22-1.1,19.13,5.61,2.94,4.02,5.68,8.21,8.3,12.45,2.7,4.37,5.94,7.91,10.99,9.65,4.5,1.55,6.5,4.9,7.29,9.72,4.11,25.23,9.16,50.32,12.65,75.64,2.83,20.52,1.55,41.15-2.03,61.67-3.75,21.49-10.39,41.87-19.91,61.47-2.73,5.62-3.77,12.04-5.73,18.05-6.71,20.57-13.24,41.2-20.34,61.63-3.7,10.65-8.4,20.95-12.77,31.36-3.61,8.6-7.13,17.24-11.16,25.64-8.94,18.59-17.26,37.57-27.61,55.36-7.78,13.38-16.66,26.3-28.15,37.28-11.79,11.25-22.48,23.65-33.59,35.6-1.58,1.7-3.19,3.49-4.23,5.53-4.61,9.08-11.75,12.14-21.96,12.18-23.48.1-46.34-3.77-69.3-7.93-18.99-3.44-38.2-5.73-57.33-8.35-17.64-2.42-31.77-10.22-42.99-24.46-9.04-11.47-19.76-21.63-29.72-32.38-11.73-12.66-19.67-27.03-24.34-44-8.1-29.42-10.85-59.58-15.05-89.55-3.6-25.72-6.71-51.53-9.21-77.38-1.11-11.54-.19-23.28-.19-34.94ZM78.5,16.77c-3.15,3.26-5.71,5.33-7.55,7.91-7.71,10.85-15.38,21.73-22.75,32.81-11.81,17.76-18.83,37.33-21.65,58.5-1.8,13.53-4.16,26.98-6.28,40.46-2.33,14.79-5.75,29.51-6.73,44.39-1.3,19.89-.86,39.9-.85,59.86,0,6.97.66,13.98,1.48,20.92,2.12,17.85,4.36,35.69,6.81,53.49,4.66,33.91,6.96,68.2,16.8,101.27,3.17,10.66,7.11,21.11,14.43,29.4,15.63,17.72,31.95,34.84,48.15,52.05,1.94,2.06,4.77,3.82,7.49,4.5,10.32,2.6,20.7,5.17,31.19,6.9,19.68,3.24,39.43,6.13,59.2,8.7,14.5,1.88,29.13,2.85,43.66,4.55,10.76,1.25,18.8-2.01,23.98-11.98,1.65-3.18,4.37-5.91,6.98-8.45,10.23-9.98,20.3-20,29.43-31.13,10.83-13.2,21.12-26.65,28.69-41.9,9.75-19.66,18.43-39.86,28.09-59.57,9.28-18.92,15.86-38.79,22.45-58.72,7.83-23.68,15.51-47.47,24.73-70.62,12.39-31.14,19.57-63.05,16.81-96.52-1.45-17.52-5.12-34.87-7.95-52.27-.63-3.89-.7-8.97-3.14-11.27-9.91-9.33-13.94-21.84-19.47-33.47-6.53-13.72-7.36-17.58-24.03-5.58-16.46,11.85-33.01,23.57-49.75,35.03-2.77,1.9-6.76,3.21-10.04,2.94-10.27-.83-20.6-1.96-30.68-4.04-28.07-5.78-56.34-10.13-84.78-13.58-21.8-2.64-43.52-5.85-65.25-9-12.69-1.84-22.14-8.1-27.62-20.24-3.69-8.18-8.19-16.02-12.76-23.76-2.27-3.85-5.51-7.13-9.06-11.61Z"/>
  <path class="cls-1" d="M218.92,331.77c5.51-16.23,10.32-31.06,15.61-45.73,3.04-8.42,6.94-16.53,10.27-24.86.94-2.35,2.32-5.26,1.7-7.39-3.13-10.75,2.8-17.59,10.31-22.82,7.88-5.48,16.46-10.23,25.29-13.99,17.28-7.37,36.59-2.18,50.06,14.03,6.51,7.83,11.49,17.14,15.99,26.36,3.73,7.62,3.56,16.15,1.22,24.47-1.29,4.58-3.67,7.99-8.8,8.1-15.96.33-31.91.67-47.87.68-9.13,0-16.4-4.86-23.44-10.07-3.91-2.89-8.01-5.51-13.06-8.95-2.6,4.63-4.94,7.81-6.29,11.37-5.88,15.57-11.52,31.23-17.14,46.9-1.98,5.52-1.75,10.86.53,16.5,5.29,13.06,1.41,16.96-8.68,24.08-1.6,1.13-3.56,2.01-5.47,2.39-9.92,1.95-13.79,8.86-13.98,17.93-.15,7.22-.1,14.75,1.71,21.66,5.17,19.73,9.34,39.51,9.22,60.03-.02,3.6.96,7.22,1.61,10.81,1.01,5.53-.55,9.67-5.39,11.27-1.9.63-5.92-.28-6.58-1.65-1.99-4.08-3.55-8.68-3.9-13.18-.65-8.28.19-16.68-.54-24.95-.76-8.59-2.28-17.16-4.24-25.56-.77-3.32-3.01-6.85-5.62-9.06-4.77-4.04-10.02-7.74-15.59-10.55-12.35-6.22-26.9-1.82-33.58,10.09-2.73,4.87-4.29,10.41-6.24,15.7-1.72,4.66-3.2,9.41-4.9,14.08-1.49,4.1-4.6,5.66-8.72,4.6-3.93-1.02-4.81-4.43-4.74-7.86.05-2.24.75-4.59,1.64-6.68,3.01-7.03,6.34-13.93,9.36-20.96,3.8-8.86,9.97-15.42,17.83-20.97,10.51-7.42,21.19-6.38,32.21-2.24,3.58,1.35,6.94,3.26,10.84,5.12,3.79-7.18,3.21-13.94,3.59-20.41.1-1.74-1.94-3.99-3.56-5.34-2.01-1.68-4.69-2.52-6.9-3.98-7.32-4.82-11.83-11.53-13.22-20.26-1.67-10.5-3.33-20.99-5.05-31.48-3.61-22-7.2-44.01-10.94-65.99-.7-4.13-2.11-8.14-3.42-13.1-2.73,1.64-4.57,2.34-5.88,3.6-12.26,11.65-26.86,14.25-42.7,10.49-15.03-3.57-28.75-10.43-41.79-18.68-8.2-5.19-11.88-13.24-14.25-22.07-1.43-5.3.33-10.13,4.47-13.51,7.47-6.1,15.15-11.97,23.05-17.5,2.29-1.6,5.59-1.91,8.49-2.46,7.51-1.42,15.11-2.39,22.56-4.02,5.42-1.19,9.72.43,13.95,3.53,12.21,8.93,22.54,19.65,31.2,32.04,4.36,6.23,8.59,12.29,16.3,15.55,6.48,2.74,7.5,10.94,3.97,17.68-1,1.92-1.73,4.43-1.44,6.5,3.15,22.4,6.5,44.76,9.87,67.13.34,2.28.75,4.8,1.98,6.64,1.14,1.7,3.74,4,5.17,3.68,11.44-2.59,22.42-.36,33.92,3.29ZM217.75,357.14c-3.98-9.11-12.25-9.78-19.02-12.38-6.04-2.32-11.9.64-12.84,5.53-.69,3.58,3.11,8.11,8.71,9.27,7.51,1.55,15.08,1.82,23.15-2.42Z"/>
</svg>